HIERARCHY
ROOT Hips
{
	OFFSET 0.000000 97.167313 0.000000
	CHANNELS 6 Xposition Yposition Zposition Xrotation Yrotation Zrotation
	JOINT Spine
	{
		OFFSET 0.000000 13.784798 0.064400
		CHANNELS 3 Xrotation Yrotation Zrotation
		JOINT Spine1
		{
			OFFSET 0.000000 12.037903 0.404700
			CHANNELS 3 Xrotation Yrotation Zrotation
			JOINT Spine2
			{
				OFFSET 0.000000 17.795601 0.420200
				CHANNELS 3 Xrotation Yrotation Zrotation
				JOINT Neck
				{
					OFFSET 0.000000 39.131302 11.954600
					CHANNELS 3 Xrotation Yrotation Zrotation
					JOINT Head
					{
						OFFSET 0.000000 14.456192 15.627699
						CHANNELS 3 Xrotation Yrotation Zrotation
						JOINT HeadTop_End
						{
							OFFSET 0.000000 15.703506 7.603401
							CHANNELS 3 Xrotation Yrotation Zrotation
							End Site
							{
								OFFSET 0.000000 17.447403 0.000000
							}
						}
					}
				}
				JOINT LeftShoulder
				{
					OFFSET 17.399500 24.608795 1.168800
					CHANNELS 3 Xrotation Yrotation Zrotation
					JOINT LeftArm
					{
						OFFSET 18.980635 5.765305 1.818600
						CHANNELS 3 Xrotation Yrotation Zrotation
						JOINT LeftForeArm
						{
							OFFSET 49.290169 0.000000 0.000000
							CHANNELS 3 Xrotation Yrotation Zrotation
							JOINT LeftHand
							{
								OFFSET 31.562012 0.000000 0.000000
								CHANNELS 3 Xrotation Yrotation Zrotation
								JOINT LeftHandThumb1
								{
									OFFSET 6.133995 -4.388519 7.076070
									CHANNELS 3 Xrotation Yrotation Zrotation
									JOINT LeftHandThumb2
									{
										OFFSET 6.037666 -3.485840 3.485847
										CHANNELS 3 Xrotation Yrotation Zrotation
										JOINT LeftHandThumb3
										{
											OFFSET 6.496506 -3.750763 3.750761
											CHANNELS 3 Xrotation Yrotation Zrotation
											JOINT LeftHandThumb4
											{
												OFFSET 5.616882 -3.242905 3.242910
												CHANNELS 3 Xrotation Yrotation Zrotation
												End Site
												{
													OFFSET -1.254608 7.132141 0.375429
												}
											}
										}
									}
								}
								JOINT LeftHandPinky1
								{
									OFFSET 18.920792 -0.453171 -11.426712
									CHANNELS 3 Xrotation Yrotation Zrotation
									JOINT LeftHandPinky2
									{
										OFFSET 4.919586 0.000000 0.000000
										CHANNELS 3 Xrotation Yrotation Zrotation
										JOINT LeftHandPinky3
										{
											OFFSET 5.233047 0.000000 0.000000
											CHANNELS 3 Xrotation Yrotation Zrotation
											JOINT LeftHandPinky4
											{
												OFFSET 5.571716 0.000000 0.000000
												CHANNELS 3 Xrotation Yrotation Zrotation
												End Site
												{
													OFFSET -3.459808 4.342407 -0.466164
												}
											}
										}
									}
								}
								JOINT LeftHandRing1
								{
									OFFSET 22.726120 -0.094986 -6.500475
									CHANNELS 3 Xrotation Yrotation Zrotation
									JOINT LeftHandRing2
									{
										OFFSET 6.408615 0.000000 0.000000
										CHANNELS 3 Xrotation Yrotation Zrotation
										JOINT LeftHandRing3
										{
											OFFSET 6.150223 0.000000 0.000000
											CHANNELS 3 Xrotation Yrotation Zrotation
											JOINT LeftHandRing4
											{
												OFFSET 6.145386 0.000000 0.000000
												CHANNELS 3 Xrotation Yrotation Zrotation
												End Site
												{
													OFFSET -3.671402 4.923981 -0.202372
												}
											}
										}
									}
								}
								JOINT LeftHandMiddle1
								{
									OFFSET 23.373947 0.000000 0.000001
									CHANNELS 3 Xrotation Yrotation Zrotation
									JOINT LeftHandMiddle2
									{
										OFFSET 6.996567 0.000000 0.000000
										CHANNELS 3 Xrotation Yrotation Zrotation
										JOINT LeftHandMiddle3
										{
											OFFSET 7.015945 0.000000 0.000000
											CHANNELS 3 Xrotation Yrotation Zrotation
											JOINT LeftHandMiddle4
											{
												OFFSET 7.721573 0.000000 0.000000
												CHANNELS 3 Xrotation Yrotation Zrotation
												End Site
												{
													OFFSET -4.651108 6.158463 0.251582
												}
											}
										}
									}
								}
								JOINT LeftHandIndex1
								{
									OFFSET 21.310577 -0.490082 6.209344
									CHANNELS 3 Xrotation Yrotation Zrotation
									JOINT LeftHandIndex2
									{
										OFFSET 7.536453 0.000000 0.000000
										CHANNELS 3 Xrotation Yrotation Zrotation
										JOINT LeftHandIndex3
										{
											OFFSET 7.512344 0.000000 0.000000
											CHANNELS 3 Xrotation Yrotation Zrotation
											JOINT LeftHandIndex4
											{
												OFFSET 10.212402 0.000000 0.000001
												CHANNELS 3 Xrotation Yrotation Zrotation
												End Site
												{
													OFFSET -5.180801 8.690506 1.388433
												}
											}
										}
									}
								}
							}
						}
					}
				}
				JOINT RightShoulder
				{
					OFFSET -17.399500 24.608795 1.168800
					CHANNELS 3 Xrotation Yrotation Zrotation
					JOINT RightArm
					{
						OFFSET -18.980635 5.765305 1.818600
						CHANNELS 3 Xrotation Yrotation Zrotation
						JOINT RightForeArm
						{
							OFFSET -49.290169 0.000000 0.000000
							CHANNELS 3 Xrotation Yrotation Zrotation
							JOINT RightHand
							{
								OFFSET -31.562012 0.000000 0.000000
								CHANNELS 3 Xrotation Yrotation Zrotation
								JOINT RightHandThumb1
								{
									OFFSET -6.133995 -4.388519 7.076070
									CHANNELS 3 Xrotation Yrotation Zrotation
									JOINT RightHandThumb2
									{
										OFFSET -6.037666 -3.485840 3.485847
										CHANNELS 3 Xrotation Yrotation Zrotation
										JOINT RightHandThumb3
										{
											OFFSET -6.496506 -3.750763 3.750761
											CHANNELS 3 Xrotation Yrotation Zrotation
											JOINT RightHandThumb4
											{
												OFFSET -5.616882 -3.242905 3.242910
												CHANNELS 3 Xrotation Yrotation Zrotation
												End Site
												{
													OFFSET 1.254608 7.132141 0.375429
												}
											}
										}
									}
								}
								JOINT RightHandIndex1
								{
									OFFSET -21.310577 -0.490082 6.209344
									CHANNELS 3 Xrotation Yrotation Zrotation
									JOINT RightHandIndex2
									{
										OFFSET -7.536453 0.000000 0.000000
										CHANNELS 3 Xrotation Yrotation Zrotation
										JOINT RightHandIndex3
										{
											OFFSET -7.512344 0.000000 0.000000
											CHANNELS 3 Xrotation Yrotation Zrotation
											JOINT RightHandIndex4
											{
												OFFSET -10.212402 0.000000 0.000001
												CHANNELS 3 Xrotation Yrotation Zrotation
												End Site
												{
													OFFSET 5.180801 8.690506 1.388433
												}
											}
										}
									}
								}
								JOINT RightHandMiddle1
								{
									OFFSET -23.373947 0.000000 0.000001
									CHANNELS 3 Xrotation Yrotation Zrotation
									JOINT RightHandMiddle2
									{
										OFFSET -6.996567 0.000000 0.000000
										CHANNELS 3 Xrotation Yrotation Zrotation
										JOINT RightHandMiddle3
										{
											OFFSET -7.015945 0.000000 0.000000
											CHANNELS 3 Xrotation Yrotation Zrotation
											JOINT RightHandMiddle4
											{
												OFFSET -7.721573 0.000000 0.000000
												CHANNELS 3 Xrotation Yrotation Zrotation
												End Site
												{
													OFFSET 4.651108 6.158463 0.251582
												}
											}
										}
									}
								}
								JOINT RightHandRing1
								{
									OFFSET -22.726120 -0.094986 -6.500475
									CHANNELS 3 Xrotation Yrotation Zrotation
									JOINT RightHandRing2
									{
										OFFSET -6.408615 0.000000 0.000000
										CHANNELS 3 Xrotation Yrotation Zrotation
										JOINT RightHandRing3
										{
											OFFSET -6.150223 0.000000 0.000000
											CHANNELS 3 Xrotation Yrotation Zrotation
											JOINT RightHandRing4
											{
												OFFSET -6.145386 0.000000 0.000000
												CHANNELS 3 Xrotation Yrotation Zrotation
												End Site
												{
													OFFSET 3.671402 4.923981 -0.202372
												}
											}
										}
									}
								}
								JOINT RightHandPinky1
								{
									OFFSET -18.920792 -0.453171 -11.426712
									CHANNELS 3 Xrotation Yrotation Zrotation
									JOINT RightHandPinky2
									{
										OFFSET -4.919586 0.000000 0.000000
										CHANNELS 3 Xrotation Yrotation Zrotation
										JOINT RightHandPinky3
										{
											OFFSET -5.233047 0.000000 0.000000
											CHANNELS 3 Xrotation Yrotation Zrotation
											JOINT RightHandPinky4
											{
												OFFSET -5.571716 0.000000 0.000000
												CHANNELS 3 Xrotation Yrotation Zrotation
												End Site
												{
													OFFSET 3.459808 4.342407 -0.466164
												}
											}
										}
									}
								}
							}
						}
					}
				}
			}
		}
	}
	JOINT LeftUpLeg
	{
		OFFSET 19.899099 -7.885101 -3.429500
		CHANNELS 3 Xrotation Yrotation Zrotation
		JOINT LeftLeg
		{
			OFFSET 1.745560 -36.997807 10.304700
			CHANNELS 3 Xrotation Yrotation Zrotation
			JOINT LeftFoot
			{
				OFFSET -1.745558 -29.803308 -13.615400
				CHANNELS 3 Xrotation Yrotation Zrotation
				JOINT LeftToeBase
				{
					OFFSET 1.181900 -18.539904 15.226099
					CHANNELS 3 Xrotation Yrotation Zrotation
					JOINT LeftToe_End
					{
						OFFSET -0.863701 1.402801 16.534700
						CHANNELS 3 Xrotation Yrotation Zrotation
						End Site
						{
							OFFSET 0.000000 16.616566 0.000000
						}
					}
				}
			}
		}
	}
	JOINT RightUpLeg
	{
		OFFSET -19.899099 -7.885101 -3.429500
		CHANNELS 3 Xrotation Yrotation Zrotation
		JOINT RightLeg
		{
			OFFSET -1.745560 -36.997807 10.304700
			CHANNELS 3 Xrotation Yrotation Zrotation
			JOINT RightFoot
			{
				OFFSET 1.745558 -29.803308 -13.615400
				CHANNELS 3 Xrotation Yrotation Zrotation
				JOINT RightToeBase
				{
					OFFSET -1.181900 -18.539904 15.226099
					CHANNELS 3 Xrotation Yrotation Zrotation
					JOINT RightToe_End
					{
						OFFSET 0.863701 1.402801 16.534700
						CHANNELS 3 Xrotation Yrotation Zrotation
						End Site
						{
							OFFSET 0.000000 16.616566 0.000000
						}
					}
				}
			}
		}
	}
}
MOTION
Frames: 4
Frame Time: 0.033333
-46.665535 86.740730 190.778412 -41.251430 -85.898993 -39.474231 13.960178 -1.595699 -3.223364 -3.356503 -1.319729 1.240109 -3.310146 -1.175033 1.387098 14.045779 -4.234905 5.065248 -4.378751 -5.712549 8.590133 0.000000 0.000000 -0.000000 2.253851 4.578952 0.184426 -5.493925 -4.940377 -70.241187 6.503580 -12.178977 -8.371243 0.281725 -2.555939 15.536461 -4.986417 13.407218 11.291231 3.484252 8.504565 1.836322 3.485902 8.501237 1.841326 -0.000001 0.000001 0.000001 -3.464886 -6.912163 -39.124690 0.024819 0.041482 -31.381594 -0.007466 -0.010738 -31.168366 -0.000001 0.000003 -0.000004 -1.907264 -6.194055 -34.197975 0.028871 -0.045736 -28.107098 -0.000283 0.000858 -27.930879 0.000001 -0.000001 0.000003 -0.683192 -5.543880 -29.068759 -0.004798 -0.062031 -24.676176 -0.011402 -0.007063 -24.545314 0.000002 -0.000001 -0.000001 0.379543 -6.144774 -25.284870 -0.068342 0.027643 -22.183891 -0.009404 -0.012737 -22.069468 0.000001 0.000001 -0.000001 3.393132 -0.207843 2.294795 4.461507 22.116540 72.130486 7.534099 20.512315 2.410083 -22.886017 0.639827 -11.334491 -0.784507 -20.559780 -5.063488 4.505256 -11.094138 -2.298530 0.052946 0.056615 -0.032163 -0.000000 -0.000001 0.000004 0.762763 1.517613 23.201949 -0.038258 -0.055641 19.908378 -0.013533 -0.024459 19.774639 0.000001 -0.000001 -0.000003 -0.241651 2.188033 25.524224 -0.005228 0.037883 21.423283 0.057278 0.046727 21.314970 -0.000000 0.000002 -0.000004 -1.252495 3.664504 29.546579 0.002044 0.038438 24.128980 -0.003037 0.087102 23.983781 -0.000001 0.000000 -0.000002 -2.706314 5.331609 33.796773 0.049290 -0.117669 26.995278 0.041018 0.049380 26.762039 0.000004 -0.000001 0.000004 -18.626969 4.735985 3.787771 34.437465 -17.619643 0.296063 -13.429715 -1.726635 4.439311 -5.158707 15.820009 -4.849754 -0.000000 -0.000000 -0.000000 -24.046776 -3.777644 0.803762 58.311319 12.397190 1.259079 1.966593 -4.110821 12.904540 -16.908543 -1.501441 -20.350057 0.000000 -0.000000 -0.000000 
-48.809700 87.741974 191.094910 -124.173645 -87.324378 -123.248646 14.165261 -1.635839 -2.770781 -3.237822 -1.379736 1.263004 -3.189989 -1.226419 1.417849 14.160353 -5.954623 5.663087 -4.736917 -7.476461 8.856892 -0.000001 -0.000001 -0.000001 2.225028 3.958749 0.711229 -5.446523 -6.512153 -69.788954 3.580974 -14.542151 -7.823137 1.160297 -1.664455 15.258509 -4.985236 13.405850 11.296319 3.482981 8.505243 1.835716 3.485843 8.501597 1.840426 0.000001 -0.000001 0.000000 -3.464724 -6.911733 -39.124601 0.025242 0.042385 -31.381591 -0.006872 -0.011736 -31.168359 -0.000000 0.000001 0.000001 -1.907551 -6.193452 -34.197948 0.029329 -0.046790 -28.106105 0.001307 -0.000118 -27.930891 0.000001 -0.000001 0.000003 -0.682507 -5.543363 -29.068633 -0.003983 -0.063451 -24.675665 -0.010149 -0.006000 -24.545275 -0.000002 -0.000002 0.000009 0.380253 -6.144671 -25.284783 -0.068724 0.026770 -22.183869 -0.008931 -0.014112 -22.069494 -0.000002 0.000001 0.000001 3.416612 -0.460522 2.588909 4.929853 23.704583 71.777358 8.334431 21.823252 0.701233 -23.766850 -0.129697 -11.866444 -0.784545 -20.559351 -5.065013 4.506600 -11.093289 -2.299142 0.053305 0.056807 -0.032330 -0.000000 -0.000001 -0.000000 0.762484 1.517619 23.201926 -0.038305 -0.055653 19.908367 -0.013709 -0.024516 19.774670 -0.000000 -0.000003 -0.000004 -0.242817 2.188310 25.524270 -0.005159 0.037502 21.423266 0.057640 0.046467 21.314973 0.000001 0.000002 -0.000004 -1.253286 3.663556 29.546586 0.002120 0.038080 24.128961 -0.002925 0.087897 23.983781 0.000000 0.000001 -0.000001 -2.707207 5.331565 33.796842 0.049516 -0.117955 26.995279 0.041488 0.049483 26.762057 -0.000001 -0.000001 -0.000001 -14.317108 6.877493 5.299928 32.397892 -15.607969 0.137513 -16.320481 -1.587822 4.315275 -5.009881 15.920401 -4.893211 0.000000 0.000000 0.000000 -26.054697 -6.113718 0.324911 53.258154 6.565495 1.363325 -2.562487 -5.175666 10.423486 -9.734443 -5.094785 -14.018688 0.000001 -0.000000 -0.000000 
-50.864113 88.727951 191.243164 -165.998677 -83.851849 -165.971862 14.168243 -1.556841 -2.022545 -3.289728 -1.321685 1.185506 -3.246480 -1.185961 1.336749 14.338828 -7.558966 5.974576 -5.002628 -9.167076 9.106864 -0.000000 0.000001 -0.000001 2.210465 3.244373 1.093004 -4.268377 -9.663565 -68.987233 5.293311 -17.084974 -5.618642 -3.981486 -1.009032 14.699105 -4.984295 13.404257 11.301825 3.482544 8.505355 1.835568 3.485303 8.502201 1.838961 -0.000002 0.000000 0.000004 -3.464571 -6.911118 -39.124546 0.025632 0.043475 -31.381588 -0.006040 -0.012462 -31.168349 0.000005 -0.000001 -0.000006 -1.909072 -6.192704 -34.198033 0.029745 -0.047417 -28.105469 0.003060 -0.000984 -27.930862 -0.000001 0.000000 0.000003 -0.682509 -5.542068 -29.068558 -0.002629 -0.064597 -24.675319 -0.008428 -0.004875 -24.545258 -0.000000 -0.000000 0.000004 0.380309 -6.144497 -25.284749 -0.069074 0.025982 -22.183888 -0.008203 -0.015458 -22.069470 -0.000000 0.000003 0.000002 3.456152 -1.101256 2.835407 5.559916 25.224083 71.489937 8.255909 22.507406 -0.453684 -24.600803 -0.479523 -11.951046 -0.784497 -20.558919 -5.066324 4.508308 -11.092166 -2.299935 0.053558 0.056974 -0.032499 0.000001 -0.000004 0.000001 0.762144 1.517483 23.201951 -0.038343 -0.055671 19.908384 -0.013817 -0.024554 19.774665 0.000001 -0.000001 -0.000001 -0.244318 2.188622 25.524338 -0.005109 0.037013 21.423307 0.057988 0.046182 21.314971 0.000000 0.000000 -0.000008 -1.254169 3.662580 29.546630 0.002159 0.037583 24.129006 -0.002759 0.088498 23.983786 0.000001 -0.000001 -0.000002 -2.708084 5.331548 33.796947 0.049715 -0.118198 26.995257 0.041917 0.049162 26.762199 0.000001 0.000001 -0.000001 -10.266338 8.937015 6.516921 29.681140 -13.348905 -0.067438 -18.593665 -1.435345 3.782450 -4.865543 16.015107 -4.960242 0.000000 0.000000 -0.000000 -26.722302 -8.352256 0.424975 45.706420 0.450726 1.225991 -6.713543 -5.509904 9.800440 -2.432279 -5.919995 -3.125249 -0.000000 -0.000003 -0.000000 
-52.918449 89.674240 191.200760 -175.266301 -79.898863 -175.832606 14.058844 -1.727355 -1.351910 -3.214727 -1.501149 0.992310 -3.166512 -1.381335 1.163451 14.272482 -8.847024 6.688016 -5.160933 -10.265453 8.714549 -0.000001 0.000004 -0.000001 2.174155 3.529494 1.540254 -3.385878 -12.759171 -68.020652 5.997395 -18.584646 -4.014622 -7.512171 -0.606306 13.837674 -4.983456 13.402363 11.307504 3.483281 8.504724 1.835981 3.483858 8.503300 1.836648 0.000002 -0.000001 -0.000002 -3.464410 -6.910322 -39.124461 0.026025 0.044722 -31.381601 -0.005059 -0.012970 -31.168308 -0.000002 0.000004 -0.000002 -1.912337 -6.191605 -34.198245 0.030140 -0.047535 -28.105286 0.004842 -0.001741 -27.930829 -0.000003 -0.000002 0.000003 -0.682917 -5.540357 -29.068428 -0.001045 -0.065339 -24.675231 -0.006665 -0.003646 -24.545241 0.000001 -0.000002 0.000004 0.378712 -6.144254 -25.284846 -0.069322 0.025278 -22.183858 -0.007259 -0.016730 -22.069475 -0.000001 0.000001 0.000001 3.494960 -0.872017 3.812301 6.330773 25.714696 70.346079 8.641823 23.204618 -1.264230 -25.101609 -1.095145 -12.578984 -0.784376 -20.558516 -5.067555 4.510163 -11.091006 -2.300769 0.053713 0.057100 -0.032594 -0.000000 0.000004 0.000001 0.761779 1.517117 23.201984 -0.038332 -0.055676 19.908362 -0.013857 -0.024580 19.774642 -0.000000 -0.000001 -0.000001 -0.245848 2.188665 25.524383 -0.005000 0.036223 21.423411 0.058316 0.045801 21.314966 0.000001 0.000001 -0.000002 -1.255108 3.661596 29.546668 0.002225 0.036989 24.129137 -0.002601 0.088983 23.983777 -0.000002 -0.000000 -0.000003 -2.708908 5.331533 33.797002 0.049895 -0.118459 26.995276 0.042393 0.048337 26.762452 -0.000000 -0.000001 0.000004 -6.008275 10.976345 7.255803 26.123238 -10.041573 -0.232192 -20.154937 -2.270993 2.406460 -4.728973 16.102193 -5.035121 -0.000000 0.000000 -0.000000 -26.924309 -11.852979 1.018647 36.922391 -5.350109 0.827210 -8.524729 -5.229850 8.082305 1.077391 -7.634762 4.736376 -0.000000 0.000001 0.000000 
